<?xml version="1.0" encoding="UTF-8" standalone="no"?>
<!-- Created with Inkscape (http://www.inkscape.org/) -->

<svg
   width="16.933332mm"
   height="16.933332mm"
   viewBox="0 0 16.933332 16.933332"
   version="1.1"
   id="svg1"
   inkscape:version="1.3.2 (091e20e, 2023-11-25)"
   sodipodi:docname="logo_2.svg"
   xmlns:inkscape="http://www.inkscape.org/namespaces/inkscape"
   xmlns:sodipodi="http://sodipodi.sourceforge.net/DTD/sodipodi-0.dtd"
   xmlns="http://www.w3.org/2000/svg"
   xmlns:svg="http://www.w3.org/2000/svg">
  <sodipodi:namedview
     id="namedview1"
     pagecolor="#ffffff"
     bordercolor="#111111"
     borderopacity="1"
     inkscape:showpageshadow="0"
     inkscape:pageopacity="0"
     inkscape:pagecheckerboard="1"
     inkscape:deskcolor="#d1d1d1"
     inkscape:document-units="mm"
     inkscape:zoom="1.4816667"
     inkscape:cx="227.10911"
     inkscape:cy="143.41957"
     inkscape:window-width="1680"
     inkscape:window-height="938"
     inkscape:window-x="0"
     inkscape:window-y="25"
     inkscape:window-maximized="0"
     inkscape:current-layer="layer1" />
  <defs
     id="defs1" />
  <g
     inkscape:label="Capa 1"
     inkscape:groupmode="layer"
     id="layer1"
     transform="translate(-5.5977326,-5.1662559)">
    <g
       id="g40"
       inkscape:export-filename="favicon.png"
       inkscape:export-xdpi="96"
       inkscape:export-ydpi="96"
       transform="matrix(0.31999999,0,0,0.31999999,-21.393541,-8.0869456)">
      <rect
         style="fill:none;stroke-width:0.738515;stroke-dasharray:2.95405, 0.738515"
         id="rect2"
         width="52.916668"
         height="52.916668"
         x="84.347733"
         y="41.416256" />
      <g
         id="g39"
         transform="matrix(0.35999997,0,0,0.35999997,75.042089,38.621604)">
        <path
           id="path2"
           d="m 159.55921,130.8774 2.05723,-2.18315 c -0.66067,0.75551 -1.35159,1.47996 -2.05723,2.18315"
           style="fill:#ffffff;fill-opacity:1;fill-rule:nonzero;stroke:none;stroke-width:0.00817658" />
        <path
           id="path3"
           d="m 54.270787,149.09322 v 0 c 0.647587,-0.094 1.30417,-0.14227 1.972196,-0.14227 -0.668026,8e-4 -1.324609,0.0482 -1.972196,0.14227"
           style="fill:#9999c7;fill-opacity:1;fill-rule:nonzero;stroke:none;stroke-width:0.00817658" />
        <path
           id="path4"
           d="M 87.828364,37.747572 C 79.281367,30.064023 63.232337,11.874361 56.783454,13.269289 46.937194,15.399293 43.395913,45.784348 53.052472,69.688635 L 87.828364,37.747572"
           style="fill:#000000;fill-opacity:1;fill-rule:nonzero;stroke:none;stroke-width:0.00817658" />
        <path
           id="path5"
           d="m 53.052472,71.231559 c -0.60997,0 -1.188058,-0.364673 -1.430903,-0.965653 -7.898594,-19.553522 -7.015521,-42.560832 -1.66721,-52.663837 1.759608,-3.32297 3.947666,-5.287807 6.502849,-5.840545 5.331146,-1.15617 13.889592,6.777583 25.396513,18.109531 2.582172,2.542922 5.021249,4.944389 7.006531,6.729338 0.633685,0.569091 0.685197,1.544561 0.115291,2.178246 -0.569092,0.632868 -1.544562,0.686018 -2.178246,0.116111 -2.037611,-1.83156 -4.500402,-4.257556 -7.108735,-6.825826 -7.352396,-7.240377 -18.46194,-18.179031 -22.578862,-17.29187 -2.023708,0.437448 -3.525747,2.563363 -4.428444,4.269002 -5.046594,9.531461 -5.527378,31.923891 1.801303,50.064497 0.318887,0.78986 -0.06296,1.689281 -0.852815,2.008169 -0.18888,0.07686 -0.385118,0.112837 -0.577272,0.112837"
           style="fill:#000000;fill-opacity:1;fill-rule:nonzero;stroke:none;stroke-width:0.00817658" />
        <path
           id="path6"
           d="m 56.200466,60.470337 c -0.984466,-0.66312 -1.621419,-1.587078 -2.097297,-2.498764 -0.475878,-0.921505 -0.802124,-1.871624 -1.062962,-2.822564 -0.518394,-1.903512 -0.811114,-3.816836 -0.994272,-5.730161 -0.3704,-3.824195 -0.385118,-7.643484 -0.224859,-11.454599 0.177436,-3.813562 0.533934,-7.606687 1.266559,-11.42107 0.192964,-0.955027 0.409648,-1.909236 0.6991,-2.892063 0.14881,-0.493866 0.309891,-0.990186 0.54783,-1.5372 0.123464,-0.275551 0.258378,-0.563368 0.503676,-0.921503 0.134914,-0.184791 0.284546,-0.392477 0.623057,-0.657399 0.07604,-0.06132 0.204419,-0.142273 0.310713,-0.201144 0.0695,-0.0368 0.144725,-0.07114 0.21913,-0.10139 l 0.112022,-0.04334 0.140635,-0.0417 c 0.09649,-0.02535 0.185611,-0.04497 0.290274,-0.05805 0.108746,-0.01227 0.219946,-0.01799 0.329515,-0.01554 0.06787,0.0016 0.08749,0.0041 0.105478,0.0065 l 0.06459,0.0065 0.129192,0.01635 c 0.331968,0.05315 0.502045,0.116925 0.684381,0.176614 0.169256,0.06133 0.323794,0.122649 0.457892,0.183974 0.282093,0.122649 0.520032,0.247751 0.761239,0.373671 0.470157,0.253474 0.90515,0.515126 1.330331,0.784135 0.846278,0.538838 1.649224,1.103841 2.433356,1.690921 3.089123,2.394926 5.941116,5.071127 8.288618,8.324595 1.153722,1.636137 2.193785,3.428447 2.768598,5.544549 0.280455,1.053965 0.408826,2.211772 0.251835,3.390839 -0.161075,1.174978 -0.643496,2.345865 -1.367941,3.25592 -0.354044,0.462798 -0.756333,0.870808 -1.182336,1.223221 l -0.311528,0.25511 -0.273097,0.211772 -0.542108,0.426003 c -0.718723,0.573997 -1.426819,1.162712 -2.116106,1.772682 -1.375306,1.224037 -2.705636,2.503677 -3.948481,3.867534 -1.237933,1.366309 -2.421091,2.786584 -3.514298,4.279633 -0.545384,0.748159 -1.072774,1.509398 -1.600165,2.283724 -0.264922,0.388387 -0.527391,0.777595 -0.811936,1.178246 -0.143904,0.200329 -0.291083,0.402289 -0.474241,0.620604 -0.09567,0.112021 -0.191332,0.224859 -0.355682,0.36631 -0.07686,0.06541 -0.192148,0.157812 -0.382665,0.243666 -0.06051,0.02453 -0.123464,0.04579 -0.186426,0.06296 -0.07686,0.01881 -0.174162,0.03107 -0.261653,0.03271 -0.209319,0.0025 -0.433356,-0.06378 -0.609971,-0.182343 m 1.038426,-1.552736 c -0.125101,-0.08831 -0.29272,-0.136545 -0.442351,-0.134092 -0.05887,-0.0017 -0.12674,0.009 -0.174984,0.02208 -0.03516,0.0074 -0.07031,0.0188 -0.103025,0.03352 -0.08503,0.03516 -0.101388,0.06215 -0.09076,0.04824 0.01309,-0.01145 0.07359,-0.07523 0.129192,-0.143089 0.116928,-0.14391 0.245298,-0.322162 0.372853,-0.505313 0.255926,-0.368769 0.513488,-0.761246 0.773504,-1.152901 0.520032,-0.784953 1.05315,-1.575634 1.605071,-2.353229 1.098934,-1.559273 2.249382,-3.090754 3.488137,-4.551093 1.233027,-1.464429 2.520841,-2.886341 3.885519,-4.23548 0.681929,-0.675385 1.372032,-1.342595 2.081758,-1.988545 l 0.535572,-0.482421 0.269006,-0.239576 c 0.08994,-0.08013 0.144725,-0.138183 0.219136,-0.207682 0.281271,-0.265744 0.521663,-0.551105 0.717086,-0.850368 0.406379,-0.593621 0.607523,-1.244477 0.659036,-1.933764 0.04333,-0.692562 -0.08422,-1.431724 -0.327884,-2.179067 C 70.3468,36.561967 69.390953,35.093448 68.327176,33.710785 67.252771,32.322399 66.005842,31.027226 64.702494,29.786018 63.400777,28.54154 62.010753,27.370651 60.572492,26.28807 59.85949,25.73942 59.130955,25.214482 58.397514,24.734515 58.03202,24.496576 57.663258,24.269267 57.309213,24.073029 c -0.174161,-0.09403 -0.351598,-0.188879 -0.500408,-0.25511 -0.07849,-0.03843 -0.143094,-0.06214 -0.193785,-0.08258 -0.03925,-0.01717 -0.09321,-0.02616 0.0057,-0.0082 l 0.0417,0.0041 0.08259,0.0033 c 0.08095,0.0041 0.161896,0 0.241207,-0.01145 0.07604,-0.0098 0.137367,-0.02044 0.205235,-0.03925 0.03352,-0.009 0.06541,-0.01962 0.0973,-0.03107 l 0.07277,-0.02616 c 0.04742,-0.01799 0.09485,-0.0417 0.137367,-0.06541 0.05806,-0.02698 0.133276,-0.08177 0.16435,-0.104661 0.152084,-0.121013 0.149631,-0.145543 0.147178,-0.140637 -0.02453,0.02616 -0.107115,0.157808 -0.178252,0.309075 -0.150447,0.309076 -0.300894,0.701552 -0.435808,1.103024 -0.273103,0.8103 -0.506951,1.681925 -0.718723,2.561728 -0.425187,1.762874 -0.78986,3.573173 -1.090761,5.394919 -0.308259,1.820929 -0.570728,3.656577 -0.776778,5.497943 -0.410464,3.680291 -0.633685,7.398186 -0.442352,11.071934 0.113652,1.830738 0.304985,3.661483 0.745705,5.394918 0.224037,0.862633 0.50613,1.702368 0.883889,2.456254 0.375306,0.751427 0.86018,1.414547 1.441536,1.81193"
           style="fill:#1a1a1a;fill-opacity:1;fill-rule:nonzero;stroke:none;stroke-width:0.00817658" />
        <path
           id="path7"
           d="M 56.719676,59.693564 C 57.498908,60.214412 60.448205,52.484257 70.468627,44.23325 79.256016,36.99696 59.280587,22.062403 56.813711,21.903777 54.34683,21.745151 49.546348,54.898805 56.719676,59.693564"
           style="fill:#ffffff;fill-opacity:1;fill-rule:nonzero;stroke:none;stroke-width:0.00817658" />
        <path
           id="path8"
           d="m 54.853781,26.594692 c 0.04906,-0.215862 0.09893,-0.426001 0.14881,-0.629598 -0.04988,0.203597 -0.09894,0.413736 -0.147995,0.629598 0,0 -7.97e-4,0 -7.97e-4,0"
           style="fill:#000072;fill-opacity:1;fill-rule:nonzero;stroke:none;stroke-width:0.00817658" />
        <path
           id="path9"
           d="m 53.779376,54.09259 c -0.133283,-0.596889 -0.249389,-1.224852 -0.349145,-1.878982 0.346692,0.206872 0.746527,0.327068 1.207687,0.327068 0.05969,0 0.121012,-0.0017 0.183152,-0.0057 -0.35486,0.51431 -0.702368,1.033526 -1.041694,1.557642 M 63.862753,42.313407 c 1.421913,-5.856078 -2.05805,-10.810279 -4.462786,-13.408802 -1.696646,-1.829923 -3.040879,-2.361401 -4.028608,-2.361401 -0.184795,0 -0.357319,0.01881 -0.516763,0.05151 0.04906,-0.215863 0.09812,-0.426001 0.147995,-0.629599 0.611613,-2.497133 1.255925,-4.059681 1.794765,-4.059681 0.0057,0 0.01145,0 0.01717,8.16e-4 1.79885,0.11529 12.90022,8.082567 15.381819,15.194572 -1.870807,0.851184 -3.690103,1.834829 -5.420269,2.994273 -0.788222,0.515941 -1.54374,1.089123 -2.283724,1.684381 -0.210956,0.17334 -0.421912,0.353229 -0.6296,0.533928"
           style="fill:#ffd5d5;fill-opacity:1;fill-rule:nonzero;stroke:none;stroke-width:0.00817658" />
        <path
           id="path10"
           d="m 56.296133,60.327249 c -0.947672,-0.63859 -1.569907,-1.538018 -2.037611,-2.434993 -0.466066,-0.906781 -0.788222,-1.846272 -1.045785,-2.789854 -0.511041,-1.887157 -0.794765,-3.793122 -0.97138,-5.698271 -0.361409,-3.810293 -0.362225,-7.621408 -0.163534,-11.419436 0.215047,-3.799667 0.587078,-7.582161 1.321341,-11.372832 0.195416,-0.947668 0.412916,-1.894518 0.701552,-2.86181 0.147179,-0.48569 0.307438,-0.972197 0.537202,-1.497135 0.118559,-0.264104 0.249383,-0.537202 0.474241,-0.865084 0.122649,-0.168438 0.258379,-0.354047 0.551105,-0.583809 0.06705,-0.05315 0.176614,-0.121832 0.26819,-0.173344 0.129193,-0.06296 0.227312,-0.112838 0.39902,-0.157809 0.152085,-0.04334 0.332784,-0.06705 0.522485,-0.06214 0.05642,0.0016 0.07359,0.0041 0.08994,0.0057 l 0.05642,0.0057 0.113659,0.01472 c 0.291904,0.04661 0.452164,0.105479 0.620604,0.16108 0.158622,0.05805 0.304985,0.11529 0.434177,0.174979 0.269006,0.117743 0.501224,0.239574 0.73671,0.363041 0.459522,0.247751 0.887978,0.506132 1.308253,0.771871 0.835651,0.533932 1.632054,1.094846 2.409648,1.678655 3.067856,2.375303 5.906775,5.033514 8.239559,8.241194 1.145541,1.613243 2.171702,3.380206 2.73425,5.438255 0.273918,1.025345 0.40801,2.141451 0.262469,3.275543 -0.147995,1.130008 -0.602611,2.252651 -1.295989,3.134908 -0.339327,0.44808 -0.725266,0.846278 -1.137367,1.191333 l -0.303348,0.251835 -0.271465,0.214231 -0.540471,0.433355 c -0.717907,0.580541 -1.420275,1.180705 -2.110384,1.794766 -1.376122,1.233033 -2.707268,2.520847 -3.949297,3.893694 -1.237933,1.375306 -2.418638,2.805393 -3.511845,4.304979 -0.546199,0.750612 -1.074405,1.51431 -1.60098,2.290268 -0.264107,0.388386 -0.526575,0.77841 -0.808668,1.174977 -0.142273,0.198691 -0.287814,0.39902 -0.464429,0.610792 -0.0924,0.107115 -0.184789,0.215862 -0.335242,0.345054 -0.07032,0.0605 -0.17334,0.142273 -0.339327,0.217494 -0.05151,0.02045 -0.104663,0.03925 -0.158628,0.05396 -0.06623,0.01554 -0.147995,0.02617 -0.2224,0.02781 -0.175798,0.0017 -0.363862,-0.05397 -0.512672,-0.153722 z m 0.847093,-1.266553 c -0.0973,-0.0695 -0.228942,-0.107116 -0.34587,-0.104663 -0.04497,-0.0025 -0.0973,0.0065 -0.134098,0.01636 -0.02616,0.0049 -0.05233,0.0139 -0.07686,0.02535 -0.05969,0.02371 -0.06378,0.03925 -0.04742,0.02126 0.0278,-0.02371 0.09158,-0.0924 0.150447,-0.16435 0.122649,-0.150453 0.253473,-0.330336 0.381849,-0.515125 0.258379,-0.372038 0.516757,-0.764514 0.777595,-1.155354 0.520847,-0.784953 1.053144,-1.57236 1.604248,-2.347501 1.098935,-1.552736 2.251836,-3.074405 3.49059,-4.525747 1.233849,-1.455439 2.520842,-2.869171 3.883883,-4.209314 0.681112,-0.6713 1.376937,-1.327883 2.088301,-1.965658 l 0.537203,-0.476694 0.269827,-0.235486 0.228127,-0.211772 c 0.29518,-0.27228 0.551105,-0.569091 0.762061,-0.882257 0.437446,-0.621419 0.666395,-1.319703 0.730173,-2.054781 0.0556,-0.738347 -0.06623,-1.518394 -0.317256,-2.294351 -0.499586,-1.560095 -1.470151,-3.054777 -2.542103,-4.460334 -1.083401,-1.410463 -2.335236,-2.723626 -3.646765,-3.97628 -1.310707,-1.255926 -2.708089,-2.437444 -4.156979,-3.529838 -0.719544,-0.55192 -1.454617,-1.080946 -2.198691,-1.566636 -0.371216,-0.240392 -0.745706,-0.470154 -1.1112,-0.672117 -0.179067,-0.0973 -0.363041,-0.19542 -0.524116,-0.266556 -0.0834,-0.04007 -0.156175,-0.06705 -0.217499,-0.09158 -0.05315,-0.02126 -0.117743,-0.03516 -0.05806,-0.02371 l 0.02617,0.0025 0.01308,-8.16e-4 c 0,0 0.0041,0 0.04661,0.0025 0.130008,0.0049 0.252657,-0.01472 0.348323,-0.03925 0.112837,-0.03598 0.160266,-0.05233 0.235486,-0.09403 0.04252,-0.01881 0.09894,-0.06133 0.121018,-0.07686 0.106294,-0.08585 0.08994,-0.08913 0.07522,-0.06705 -0.04497,0.05642 -0.13164,0.20278 -0.207682,0.365494 -0.158628,0.331152 -0.309897,0.732624 -0.446442,1.142271 -0.273918,0.826654 -0.506951,1.706457 -0.71627,2.5928 -0.848731,3.559273 -1.425181,7.251007 -1.812752,10.941103 -0.372037,3.693372 -0.581356,7.419448 -0.381034,11.107907 0.120196,1.838104 0.320525,3.676201 0.768605,5.425176 0.227305,0.870807 0.514304,1.721176 0.901059,2.49059 0.384302,0.766151 0.882257,1.452985 1.501223,1.874898"
           style="fill:#000000;fill-opacity:1;fill-rule:nonzero;stroke:none;stroke-width:0.00817658" />
        <path
           id="path11"
           d="m 123.44399,39.739391 c 9.4358,-6.56172 27.62137,-22.615653 33.84703,-20.430048 9.50448,3.337687 9.24201,33.927979 -3.30989,56.446332 L 123.44399,39.739391"
           style="fill:#000000;fill-opacity:1;fill-rule:nonzero;stroke:none;stroke-width:0.00817658" />
        <path
           id="path12"
           d="m 153.9795,77.298599 c -0.25429,0 -0.51186,-0.06296 -0.74979,-0.195423 -0.74407,-0.414553 -1.01145,-1.35486 -0.59608,-2.098935 9.52574,-17.089087 11.83235,-39.367048 8.0098,-49.452065 -0.68439,-1.805393 -1.91006,-4.100565 -3.86345,-4.786582 -3.973,-1.394927 -16.3581,8.080115 -24.55269,14.350749 -2.90759,2.22485 -5.6533,4.325422 -7.90268,5.889601 -0.6991,0.487327 -1.66067,0.313981 -2.14717,-0.385933 -0.48651,-0.6991 -0.31398,-1.660668 0.38593,-2.146357 2.19215,-1.524938 4.91087,-3.605062 7.78903,-5.80702 12.825,-9.813554 22.30086,-16.619754 27.44966,-14.811908 2.46688,0.865901 4.39329,3.087483 5.72607,6.603421 4.05151,10.689267 2.06868,33.627894 -8.20031,52.04814 -0.28127,0.506945 -0.80703,0.792312 -1.34832,0.792312"
           style="fill:#000000;fill-opacity:1;fill-rule:nonzero;stroke:none;stroke-width:0.00817658" />
        <path
           id="path13"
           d="m 34.740164,104.58799 c 0.148816,22.61239 28.278764,40.94351 58.258265,44.09886 39.734991,4.18233 64.610661,-16.5519 68.474101,-30.13486 4.2412,-14.91166 -4.17661,-49.380934 -18.81271,-67.725947 C 131.93294,37.379625 115.58873,34.114709 99.699969,33.155594 88.375378,32.471213 72.683668,35.992054 64.40323,43.575035 54.076186,53.032903 49.379546,64.132636 43.10564,81.341925 41.552904,85.599482 34.666574,93.371337 34.740164,104.58799"
           style="fill:#6e787a;fill-opacity:1;fill-rule:nonzero;stroke:none;stroke-width:0.00817658" />
        <path
           id="path14"
           d="m 34.740164,104.58799 c 0.148816,22.61239 28.278764,40.94351 58.258265,44.09886 39.734991,4.18233 64.610661,-16.5519 68.474101,-30.13486 4.2412,-14.91166 -4.17661,-49.380934 -18.81271,-67.725947 C 131.93294,37.379625 115.58873,34.114709 99.699969,33.155594 88.375378,32.471213 72.683668,35.992054 64.40323,43.575035 54.076186,53.032903 49.379546,64.132636 43.10564,81.341925 41.552904,85.599482 34.666574,93.371337 34.740164,104.58799"
           style="fill:#000000;fill-opacity:1;fill-rule:nonzero;stroke:none;stroke-width:0.00817658" />
        <path
           id="path15"
           d="m 156.48889,121.72451 c -1.18969,3.7457 -3.2183,7.89859 -6.43661,12.25918 -0.1668,0.14145 -0.34424,0.28618 -0.52085,0.43008 -0.3426,0.27637 -0.68929,0.54784 -1.04579,0.82175 -0.84954,0.65168 -1.73916,1.29191 -2.65984,1.91742 -0.32298,0.21831 -0.64514,0.43172 -0.97711,0.6484 -0.32706,0.21341 -0.6623,0.42436 -0.99836,0.63532 -0.34097,0.21096 -0.68111,0.4211 -1.03025,0.62551 -0.26002,0.15781 -0.52412,0.31071 -0.78741,0.46361 -0.44399,0.2592 -0.89043,0.50777 -1.34669,0.7547 -0.36631,0.19624 -0.73344,0.39739 -1.10874,0.58708 -0.2821,0.14963 -0.574,0.29763 -0.86508,0.44563 -0.13083,0.067 -0.25511,0.13082 -0.38512,0.19297 -0.33197,0.16435 -0.66803,0.32379 -1.00981,0.4865 -0.0106,0.007 -0.0213,0.0106 -0.0311,0.0139 -0.38838,0.18724 -0.78577,0.36876 -1.18642,0.54537 -0.37694,0.17498 -0.76124,0.34015 -1.15127,0.50859 -0.42518,0.18152 -0.86017,0.36058 -1.29435,0.53638 -0.33688,0.13982 -0.67866,0.27392 -1.02371,0.40311 -0.16353,0.0662 -0.32625,0.12755 -0.49305,0.18806 -0.27473,0.10793 -0.55355,0.21096 -0.83728,0.31317 -0.24285,0.085 -0.48079,0.17171 -0.72772,0.25592 -0.57236,0.20769 -1.15208,0.40474 -1.74407,0.58953 -0.2224,0.0752 -0.44317,0.14555 -0.66884,0.21423 -0.27065,0.0859 -0.5462,0.17008 -0.82175,0.25429 -0.27473,0.0793 -0.55029,0.16435 -0.82993,0.24285 -0.27964,0.0793 -0.56009,0.16272 -0.8381,0.23712 -0.28454,0.0777 -0.56827,0.15618 -0.85118,0.22976 -0.26411,0.072 -0.5323,0.139 -0.80049,0.21014 -0.0196,8e-4 -0.0392,0.007 -0.0597,0.0131 -0.36223,0.0932 -0.72853,0.17988 -1.09893,0.26655 -0.29763,0.0711 -0.59444,0.14227 -0.89453,0.2036 -0.20768,0.0482 -0.41946,0.0965 -0.63123,0.13982 -0.3704,0.0826 -0.73916,0.15944 -1.11201,0.2314 -0.19706,0.0417 -0.3884,0.0793 -0.58463,0.11529 -0.33443,0.0646 -0.67212,0.12837 -1.00981,0.18806 -0.24039,0.0433 -0.47997,0.0867 -0.71954,0.1251 -0.13164,0.0237 -0.2641,0.0482 -0.39575,0.0679 -0.24448,0.0425 -0.48814,0.0801 -0.7318,0.11774 -0.31235,0.0499 -0.62388,0.094 -0.93949,0.13818 -0.31236,0.0499 -0.62797,0.094 -0.94359,0.13328 -0.31562,0.0442 -0.63532,0.0826 -0.95502,0.12102 -0.25266,0.0319 -0.50368,0.0589 -0.7547,0.0858 -0.16108,0.0237 -0.31971,0.0384 -0.47915,0.0532 -0.23222,0.0253 -0.46443,0.0515 -0.69992,0.0711 -0.37203,0.0392 -0.73835,0.0744 -1.10875,0.10384 -0.28454,0.0262 -0.57236,0.0466 -0.86099,0.067 -0.72118,0.0581 -1.45462,0.10467 -2.18561,0.13737 -0.278,0.0131 -0.55028,0.027 -0.82747,0.0401 -0.39166,0.0163 -0.78822,0.0319 -1.17824,0.0393 -0.29109,0.0106 -0.58136,0.0163 -0.87654,0.0212 -0.57072,0.009 -1.14063,0.018 -1.71872,0.0155 -0.36549,0.002 -0.73017,0 -1.09975,-0.003 -0.46852,-0.007 -0.94031,-0.018 -1.4121,-0.0302 -0.27882,-0.007 -0.55682,-0.0172 -0.840554,-0.0245 -0.42355,-0.0172 -0.851184,-0.036 -1.284545,-0.0548 -0.06132,-0.002 -0.127555,-0.003 -0.188058,-0.009 -1.776779,-0.0899 -3.587078,-0.22812 -5.430897,-0.42355 -5.893694,-0.61896 -11.717883,-1.82665 -17.268161,-3.53719 -0.77841,-0.24121 -1.554373,-0.49142 -2.324603,-0.74979 -0.277186,-0.0965 -0.558463,-0.19379 -0.83565,-0.28946 -0.32134,-0.11365 -0.63859,-0.22567 -0.959931,-0.33933 -0.103025,-0.0368 -0.21014,-0.0752 -0.316434,-0.11774 -0.262469,-0.0981 -0.529028,-0.19706 -0.791497,-0.29517 -0.343417,-0.12674 -0.685197,-0.25757 -1.022077,-0.3933 -0.679475,-0.26165 -1.351591,-0.53557 -2.022886,-0.82011 l -0.009,-0.002 c -0.935401,-0.39657 -1.859359,-0.8054 -2.771052,-1.2314 -0.381027,-0.17579 -0.766145,-0.36222 -1.145541,-0.54701 -0.318888,-0.15617 -0.637775,-0.31153 -0.955841,-0.47179 -0.318887,-0.15536 -0.631237,-0.31971 -0.945218,-0.47915 -0.312344,-0.16353 -0.624688,-0.32788 -0.936217,-0.49632 -0.30826,-0.16272 -0.615698,-0.33115 -0.92232,-0.50286 -0.280462,-0.15454 -0.556827,-0.31153 -0.837288,-0.47016 -0.0605,-0.0294 -0.121012,-0.0638 -0.180699,-0.10302 -0.267375,-0.15127 -0.529028,-0.30662 -0.795587,-0.46198 -0.29681,-0.17579 -0.591984,-0.35568 -0.887978,-0.53557 -0.295174,-0.17988 -0.586263,-0.35895 -0.87653,-0.54292 -0.299263,-0.18479 -0.593621,-0.37449 -0.882257,-0.56255 -0.553552,-0.35813 -1.096482,-0.72363 -1.632863,-1.09812 -0.01226,-0.0114 -0.02045,-0.0172 -0.03353,-0.0245 -0.553557,-0.38675 -1.096482,-0.77596 -1.628778,-1.17334 -0.315619,-0.23058 -0.620604,-0.46443 -0.925589,-0.69828 -0.462798,-0.36059 -0.920689,-0.72118 -1.368763,-1.08912 -0.02453,-0.0188 -0.04906,-0.0417 -0.07441,-0.0605 -0.74979,-0.6157 -1.475056,-1.24039 -2.172518,-1.88471 -0.233033,-0.21177 -0.46116,-0.42273 -0.689287,-0.63777 -0.0082,-0.007 -0.01636,-0.0131 -0.02453,-0.0237 -0.227311,-0.21504 -0.450533,-0.43008 -0.672938,-0.64921 -0.214225,-0.20851 -0.423544,-0.42029 -0.633685,-0.62797 -0.253472,-0.25838 -0.502045,-0.51512 -0.745705,-0.77596 -0.195423,-0.21013 -0.382665,-0.41373 -0.573182,-0.62224 -0.417822,-0.45789 -0.820111,-0.92232 -1.211772,-1.3892 -0.396561,-0.4677 -0.773504,-0.94195 -1.139814,-1.41864 -0.18561,-0.24121 -0.366315,-0.4816 -0.542108,-0.72118 -0.111206,-0.14799 -0.2175,-0.29926 -0.323793,-0.45053 -0.100573,-0.13164 -0.198692,-0.27228 -0.292727,-0.4121 -0.143904,-0.20523 -0.279639,-0.40474 -0.418637,-0.61406 -0.161082,-0.24203 -0.318072,-0.48242 -0.474247,-0.72854 -0.156169,-0.24529 -0.310707,-0.4955 -0.46116,-0.74897 -0.150448,-0.24939 -0.300895,-0.49878 -0.441537,-0.75143 -0.138182,-0.23712 -0.266553,-0.47834 -0.395745,-0.71464 -0.250204,-0.46525 -0.490596,-0.92968 -0.71218,-1.39984 -0.07768,-0.15126 -0.150453,-0.30171 -0.218315,-0.45625 -0.1063,-0.23221 -0.208503,-0.45871 -0.309897,-0.68929 -0.08831,-0.20114 -0.170887,-0.40474 -0.254288,-0.60425 -0.215863,-0.52657 -0.416191,-1.05968 -0.602618,-1.59034 -0.09076,-0.26738 -0.18152,-0.53475 -0.267374,-0.8005 -0.256748,-0.80457 -0.478331,-1.62059 -0.657399,-2.43907 -0.07523,-0.32625 -0.14391,-0.66149 -0.205235,-0.98937 l 0.0065,0.0155 c 10.507749,15.70644 33.440655,27.18557 57.469221,29.7105 29.501984,3.10792 51.481504,-6.40064 63.808534,-17.45459"
           style="fill:#e2e2e2;fill-opacity:1;fill-rule:nonzero;stroke:none;stroke-width:0.00817658" />
        <path
           id="path16"
           d="m 150.03919,134.00004 c -10.72033,8.85607 -28.3082,16.24526 -51.422622,15.12017 -0.825017,-0.0409 -1.623873,0.0172 -2.426812,0.0744 -0.98692,0.0703 -1.980377,0.14146 -3.031883,0.0302 -2.210135,-0.23221 -4.575629,-0.47505 -6.75469,-0.86753 -3.634501,-0.65577 -7.206039,-2.139 -10.677821,-3.2085 -22.687608,-6.99017 -40.865818,-22.39325 -40.986014,-40.56084 -0.03026,-4.51839 1.071952,-8.476675 2.497133,-11.871599 2.309885,-2.281271 5.605059,-4.069493 10.09728,-5.128364 5.271453,-2.800481 7.748962,-28.84704 24.250156,-34.143839 9.113635,-2.922314 7.262451,22.989325 10.269804,31.673688 0.614882,1.780048 2.105478,-2.520841 3.703184,-6.821736 1.355682,-3.648396 2.789037,-7.295977 3.830738,-7.233015 2.269006,0.136545 1.658214,18.25998 3.461154,15.249352 4.354039,-7.268178 11.206843,-34.909984 21.841333,-31.497889 18.99914,6.097286 18.68271,38.277109 23.9746,41.685929 3.06295,1.974649 12.07275,0.556827 17.63283,9.429253 2.3655,3.77187 3.39166,15.00979 -6.25837,28.07027"
           style="fill:#ffffff;fill-opacity:1;fill-rule:nonzero;stroke:none;stroke-width:0.00817658" />
        <path
           id="path17"
           d="m 153.5625,128.50537 c 1.29189,-2.36795 2.24447,-4.64104 2.92313,-6.77841 7.9e-4,0 0.002,-0.002 0.003,-0.002 -0.67948,2.139 -1.63287,4.41128 -2.92477,6.77922 -8e-4,8e-4 -8e-4,8e-4 -0.002,0.002"
           style="fill:#9e9ec0;fill-opacity:1;fill-rule:nonzero;stroke:none;stroke-width:0.00817658" />
        <path
           id="path18"
           d="m 129.7089,41.046829 c -6.31724,-3.317244 -13.35647,-5.056406 -20.44804,-5.991811 -3.54701,-0.451348 -7.15697,-0.748976 -10.714613,-0.896972 -3.538828,-0.08913 -7.102191,0.190514 -10.610768,0.765329 -3.508582,0.577267 -6.973821,1.434994 -10.309873,2.621415 -3.325425,1.194601 -6.551909,2.69174 -9.411267,4.66802 -0.720354,0.48569 -1.400652,1.017987 -2.063772,1.565823 -0.329515,0.278818 -0.64268,0.56091 -0.965658,0.85609 -0.318887,0.306622 -0.644312,0.606701 -0.959115,0.917414 -1.263285,1.237117 -2.465245,2.533106 -3.598521,3.886335 -2.268184,2.705637 -4.256735,5.638585 -5.995898,8.73097 -3.489774,6.186415 -6.045779,12.920666 -8.580522,19.668813 L 45.115452,80.377904 44.651839,81.651 c -0.06951,0.197876 -0.172531,0.457892 -0.268197,0.701553 -0.102203,0.23058 -0.20196,0.470156 -0.309891,0.68765 -0.857727,1.765329 -1.805393,3.278818 -2.672932,4.847909 -1.757965,3.094838 -3.269822,6.248555 -4.16516,9.577248 -0.911686,3.31398 -1.181514,6.77349 -0.745705,10.16678 0.426818,3.39329 1.542924,6.69418 3.154531,9.74978 1.611608,3.06132 3.717086,5.8757 6.110373,8.43008 2.395745,2.556 5.089932,4.84954 7.95665,6.90922 5.744878,4.11773 12.171685,7.30334 18.864229,9.686 0.830744,0.29436 1.696646,0.58871 2.502854,0.84628 0.828292,0.25429 1.677023,0.4587 2.550284,0.68683 1.736709,0.44317 3.478325,0.85691 5.226483,1.23549 3.496312,0.75797 7.017975,1.36548 10.555172,1.79721 1.766145,0.21505 3.549461,0.38021 5.3107,0.49795 1.75306,0.11284 3.53147,0.13574 5.31233,0.12102 3.55601,-0.0352 7.10874,-0.26574 10.62713,-0.73917 7.03596,-0.93131 13.94764,-2.79067 20.42106,-5.63858 3.23711,-1.41946 6.3573,-3.09811 9.30006,-5.03515 2.93948,-1.93867 5.70481,-4.13899 8.16924,-6.61814 2.45216,-2.47751 4.64103,-5.23956 6.16679,-8.27308 0.37939,-0.75715 0.71381,-1.52902 0.98691,-2.31152 0.13982,-0.39412 0.25838,-0.77596 0.36141,-1.1897 l 0.15944,-0.61079 0.13328,-0.62388 c 0.34505,-1.66802 0.5372,-3.39983 0.63123,-5.14717 0.18888,-3.49958 -0.0319,-7.05558 -0.40637,-10.59278 -0.38267,-3.541287 -0.99428,-7.06785 -1.72608,-10.571521 -1.50204,-7.000803 -3.56173,-13.90431 -6.17906,-20.60585 l -8e-4,-0.0017 c -0.15535,-0.397382 0.0409,-0.844646 0.43827,-1 0.37939,-0.147994 0.80621,0.02698 0.97874,0.389208 3.11446,6.599331 5.55436,13.524092 7.30742,20.633643 0.87571,3.556005 1.58136,7.159432 2.0556,10.81029 0.48487,3.64839 0.7269,7.34503 0.58381,11.08256 -0.0728,1.86835 -0.26493,3.74815 -0.64759,5.62795 l -0.14718,0.70483 -0.17988,0.704 c -0.11448,0.46443 -0.26166,0.94931 -0.42191,1.40883 -0.31971,0.92804 -0.70319,1.82175 -1.13001,2.6852 -1.72117,3.45215 -4.08912,6.43825 -6.70726,9.11281 -2.63041,2.66966 -5.55191,5.01307 -8.64594,7.0744 -3.09729,2.05805 -6.36793,3.83646 -9.7555,5.34095 -6.77595,3.01553 -14.00079,4.92313 -21.31476,5.89451 -3.65902,0.48978 -7.34585,0.7269 -11.03022,0.76124 -1.83811,0.0139 -3.68438,-0.0106 -5.543738,-0.13001 -1.851184,-0.1251 -3.673748,-0.29517 -5.502034,-0.52248 -3.649218,-0.4538 -7.269,-1.08667 -10.847897,-1.8708 -1.789854,-0.39167 -3.569901,-0.81848 -5.340137,-1.27474 -0.877345,-0.23058 -1.790675,-0.4538 -2.690918,-0.73262 -0.917409,-0.29436 -1.765324,-0.58627 -2.640222,-0.89779 -6.935389,-2.48733 -13.609131,-5.80621 -19.634464,-10.14389 -3.006538,-2.17089 -5.849541,-4.5977 -8.401456,-7.33196 -2.548645,-2.7318 -4.817651,-5.77022 -6.575622,-9.12427 -1.757965,-3.34749 -2.99672,-7.01797 -3.465239,-10.81682 -0.473425,-3.79394 -0.179889,-7.69091 0.816021,-11.361386 0.977923,-3.680285 2.619782,-7.113641 4.429265,-10.308236 0.892069,-1.594437 1.864265,-3.158622 2.591162,-4.650849 0.09404,-0.188064 0.167625,-0.367132 0.250204,-0.548652 0.0695,-0.178246 0.135736,-0.33769 0.2175,-0.566639 l 0.470156,-1.27718 0.950119,-2.552736 c 0.639412,-1.700731 1.286999,-3.400646 1.959931,-5.094839 0.679475,-1.690919 1.381843,-3.376937 2.116106,-5.052322 1.469334,-3.349949 3.073583,-6.664746 4.932942,-9.858525 1.85363,-3.19378 3.986091,-6.251008 6.410451,-9.062938 1.210134,-1.405558 2.492227,-2.750612 3.833191,-4.027793 0.333606,-0.32134 0.677838,-0.630415 1.01635,-0.946034 0.349138,-0.310713 0.713817,-0.6296 1.079311,-0.930495 0.739984,-0.595259 1.495501,-1.16844 2.283724,-1.684381 3.134907,-2.100567 6.560904,-3.623051 10.058032,-4.827464 3.505307,-1.192148 7.108734,-2.030249 10.752225,-2.578899 3.643496,-0.545379 7.33523,-0.785771 11.034324,-0.641863 3.675383,0.200327 7.283713,0.551103 10.910853,1.085853 3.61324,0.554373 7.21584,1.279637 10.72933,2.351586 3.51921,1.045792 6.94357,2.445621 10.17987,4.204408 0.37448,0.203597 0.51349,0.672116 0.30989,1.045791 -0.20196,0.371215 -0.66312,0.510219 -1.03597,0.314797 l -0.006,-0.0025"
           style="fill:#000000;fill-opacity:1;fill-rule:nonzero;stroke:none;stroke-width:0.00817658" />
        <path
           id="path19"
           d="m 77.207778,106.8848 c 2.302532,4.04742 -0.192964,13.06866 6.651665,13.04331 5.613233,-0.0213 5.931304,-5.82174 7.666377,-10.05558"
           style="fill:#1a1a1a;fill-opacity:1;fill-rule:nonzero;stroke:none;stroke-width:0.00817658" />
        <path
           id="path20"
           d="m 83.829191,121.25027 c -5.661477,0 -6.256735,-5.139 -6.69255,-8.89451 -0.209319,-1.80458 -0.425996,-3.67129 -1.078489,-4.81765 -0.360588,-0.63451 -0.139004,-1.44235 0.496317,-1.80294 0.634507,-0.36059 1.441537,-0.13982 1.80294,0.4955 0.91823,1.61406 1.165981,3.75224 1.406373,5.82011 0.528213,4.55354 1.07359,6.55518 4.065409,6.55518 0.009,0 0.01717,0 0.02535,0 3.291898,-0.0131 4.209313,-2.40229 5.434987,-6.3009 0.307438,-0.97628 0.624688,-1.98609 1.01308,-2.93376 0.276365,-0.67538 1.049876,-0.99918 1.724445,-0.72199 0.676201,0.27719 0.999178,1.04906 0.722807,1.72526 -0.346685,0.84382 -0.633684,1.75715 -0.937038,2.72363 -1.138998,3.62305 -2.55682,8.13163 -7.948469,8.15207 -0.01145,0 -0.02372,0 -0.03516,0"
           style="fill:#1a1a1a;fill-opacity:1;fill-rule:nonzero;stroke:none;stroke-width:0.00817658" />
        <path
           id="path21"
           d="m 73.664044,103.72618 c 0,0 -1.470151,3.15372 1.29272,5.03515 3.438256,2.3426 7.378563,-0.48733 8.366292,-1.76942 0.229764,-0.29844 0.845462,-0.21013 0.925595,0.15781 0.43663,2.00327 2.720354,6.20931 7.598509,5.35813 1.916599,-0.33442 3.96729,-2.21504 3.496318,-4.56827 L 87.896232,95.738462 73.664044,103.72618"
           style="fill:#ffffff;fill-opacity:1;fill-rule:nonzero;stroke:none;stroke-width:0.00817658" />
        <path
           id="path22"
           d="m 95.012325,110.22167 c -0.636959,1.21096 -1.932132,2.07113 -3.166796,2.28454 -4.874893,0.852 -7.160248,-3.35159 -7.5977,-5.35894 -0.08013,-0.36713 -0.693371,-0.4538 -0.926404,-0.15372 -0.985283,1.28209 -4.926405,4.11038 -8.36303,1.76941 -1.253472,-0.85036 -1.636131,-1.96401 -1.680285,-2.92722 4.332778,1.77351 8.690901,-0.40392 9.40554,-3.24529 0.125102,-0.49795 4.672926,-1.51104 4.560089,-1.00981 -1.100572,4.89451 1.093207,9.80865 7.750594,8.64512 l 0.01799,-0.004"
           style="fill:#e2e2e2;fill-opacity:1;fill-rule:nonzero;stroke:none;stroke-width:0.00817658" />
        <path
           id="path23"
           d="m 96.099811,107.78831 c 0.291904,0.78905 0.299263,1.73017 0.03434,2.58381 -0.271466,0.85363 -0.785769,1.60098 -1.417823,2.20277 -0.651677,0.57891 -1.402288,1.06787 -2.307438,1.31398 -0.111199,0.0303 -0.23058,0.0654 -0.336874,0.0875 l -0.302532,0.054 -0.60916,0.10139 c -0.202776,0.036 -0.418638,0.0237 -0.627963,0.036 -0.212588,0 -0.421913,0.0237 -0.636953,0 -0.857727,-0.0597 -1.721992,-0.27392 -2.514304,-0.64759 -0.784138,-0.38594 -1.484053,-0.90433 -2.083402,-1.49223 -0.591168,-0.59444 -1.085032,-1.25347 -1.497133,-1.95094 -0.418644,-0.69828 -0.755518,-1.42354 -0.991004,-2.2551 l -0.0834,-0.31807 -0.0057,-0.0196 0.01063,0.0491 c 0.009,0.0352 0.01962,0.0695 0.03189,0.10384 0.02698,0.0671 0.05315,0.13165 0.08995,0.19379 0.06868,0.12102 0.158622,0.22077 0.236302,0.2919 0.165986,0.14473 0.306622,0.1987 0.424365,0.23058 0.11938,0.0286 0.221584,0.0376 0.34996,0.0221 0.126734,-0.0164 0.286177,-0.0597 0.469335,-0.18806 0.04906,-0.0327 0.08504,-0.0687 0.134098,-0.11202 0.02289,-0.0221 0.04415,-0.045 0.06459,-0.0687 0.01472,-0.0155 0.0556,-0.0703 0.0327,-0.0417 l -0.11529,0.14146 c -0.157806,0.1995 -0.309076,0.35077 -0.462792,0.50694 -0.610792,0.59935 -1.247751,1.07114 -1.952571,1.47669 -0.700737,0.40557 -1.464429,0.72363 -2.283724,0.93868 -0.815211,0.21096 -1.713002,0.28046 -2.598527,0.16516 -0.445621,-0.0433 -0.879798,-0.17088 -1.30907,-0.30007 -0.21014,-0.0744 -0.410469,-0.17662 -0.613245,-0.26738 l -0.300085,-0.14309 -0.278002,-0.17498 c -0.742438,-0.41864 -1.439078,-1.09239 -1.917409,-1.91005 -0.121017,-0.20197 -0.203597,-0.42927 -0.299263,-0.64268 -0.07768,-0.22159 -0.140642,-0.44808 -0.195423,-0.67212 -0.08749,-0.45135 -0.113653,-0.90597 -0.07277,-1.33524 0.02698,-0.43254 0.133283,-0.84055 0.257563,-1.22812 0.138189,-0.39575 0.294358,-0.72854 0.541293,-1.1202 0.22649,-0.35813 0.70073,-0.46606 1.058866,-0.23957 0.253478,0.15862 0.381033,0.44153 0.355682,0.71954 l -0.01635,0.17253 c -0.02208,0.2363 -0.05806,0.56418 -0.04988,0.83891 -0.0025,0.28291 0.02617,0.55847 0.07849,0.80949 0.103847,0.50695 0.295995,0.91578 0.589537,1.22403 0.27964,0.31889 0.647587,0.57482 1.118559,0.78087 0.449711,0.20523 0.900244,0.33115 1.3753,0.34751 0.936222,0.0662 1.981192,-0.25185 2.962384,-0.78087 0.484052,-0.26656 0.968111,-0.59689 1.342595,-0.94522 0.08913,-0.0859 0.183158,-0.17252 0.238761,-0.24039 l 0.05069,-0.054 0.07523,-0.0891 0.108747,-0.11529 c 0.07523,-0.0768 0.150454,-0.13327 0.232218,-0.1946 0.32134,-0.22813 0.646771,-0.32952 0.941944,-0.3704 0.297626,-0.0392 0.573997,-0.0221 0.858543,0.0507 0.282908,0.0744 0.582171,0.2036 0.876529,0.46116 0.143094,0.12511 0.28782,0.29273 0.39902,0.48815 0.0556,0.0989 0.106294,0.19951 0.143088,0.30907 0.01962,0.054 0.0368,0.10957 0.05151,0.16435 l 0.0229,0.0916 0.04497,0.17825 c 0.125917,0.48651 0.354866,1.01962 0.632868,1.49632 0.287815,0.4767 0.635322,0.90515 1.01635,1.27391 0.394114,0.35323 0.826654,0.62061 1.270643,0.83647 0.233033,0.081 0.451348,0.19624 0.695831,0.24285 0.231395,0.0867 0.484874,0.10629 0.733441,0.15616 0.253472,0.0319 0.515125,0.0442 0.781684,0.0532 l 0.408826,-0.0155 0.206872,-0.006 c 0.06296,-0.004 0.108747,-0.0139 0.16435,-0.0188 0.43254,-0.0523 0.91414,-0.23141 1.337689,-0.4906 0.426003,-0.2592 0.794766,-0.60507 1.066231,-1.00817 0.260831,-0.40802 0.420275,-0.88062 0.448074,-1.435 l 0.0032,-0.0711 c 0.02125,-0.4301 0.386749,-0.76125 0.816842,-0.73999 0.32134,0.0164 0.587078,0.22486 0.692556,0.50777"
           style="fill:#1a1a1a;fill-opacity:1;fill-rule:nonzero;stroke:none;stroke-width:0.00817658" />
        <path
           id="path24"
           d="m 77.337786,95.013196 c -0.416185,2.487321 1.98855,5.148804 3.897784,6.827454 1.322156,1.1619 3.192964,1.47507 4.821742,0.80703 2.352408,-0.96402 5.493037,-2.697452 5.909228,-5.183957 0.677023,-4.040058 -13.951732,-6.489763 -14.628754,-2.450527"
           style="fill:#1a1a1a;fill-opacity:1;fill-rule:nonzero;stroke:none;stroke-width:0.00817658" />
        <path
           id="path25"
           d="m 83.998447,96.457185 c -0.484874,0 -1.005722,-0.11529 -1.416191,-0.322156 -0.747337,-0.376943 -1.704821,-0.95503 -1.627957,-1.415369 0.0327,-0.19706 0.434993,-0.27964 1.006537,-0.27964 1.591984,0 4.497949,0.636138 4.405552,1.186421 -0.07686,0.459529 -1.170887,0.694193 -1.999994,0.80703 -0.118565,0.01636 -0.24203,0.02371 -0.367947,0.02371"
           style="fill:#cccccc;fill-opacity:1;fill-rule:nonzero;stroke:none;stroke-width:0.00817658" />
        <path
           id="path26"
           d="m 84.249466,108.69265 c -0.561732,0 -1.10384,-0.30826 -1.376121,-0.84301 -0.223221,-0.4399 -1.261647,-2.9493 0.267375,-9.203581 0.202781,-0.82747 1.03761,-1.334421 1.86508,-1.132461 0.827476,0.202781 1.334421,1.03761 1.131645,1.865086 -1.23467,5.052316 -0.522485,7.055586 -0.51431,7.071116 0.386755,0.75961 0.08422,1.68847 -0.674569,2.07522 -0.224859,0.11366 -0.463614,0.16763 -0.6991,0.16763"
           style="fill:#1a1a1a;fill-opacity:1;fill-rule:nonzero;stroke:none;stroke-width:0.00817658" />
        <path
           id="path27"
           d="m 121.00982,79.171854 c 0.84137,-2.206045 -5.19377,-11.017147 -9.96973,-9.92884 -4.77677,1.088301 -4.96156,6.130812 -2.52493,8.035961 3.54047,2.766961 11.65329,4.099745 12.49466,1.892879"
           style="fill:#000000;fill-opacity:1;fill-rule:nonzero;stroke:none;stroke-width:0.00817658" />
        <path
           id="path28"
           d="m 62.210266,73.651834 c -0.34587,-1.936217 5.964825,-8.210938 9.704803,-6.577254 3.740794,1.633684 3.108741,5.789848 0.817658,6.970546 -3.327871,1.714633 -10.17659,1.543746 -10.522461,-0.393292"
           style="fill:#000000;fill-opacity:1;fill-rule:nonzero;stroke:none;stroke-width:0.00817658" />
        <path
           id="path29"
           d="m 89.227378,116.31814 c -4.385928,3.54129 -0.784132,13.31478 -8.240374,12.25346 -2.906781,-0.41456 -4.474235,-3.12019 -4.837276,-6.12346 -0.396567,-3.27473 0.628778,-6.91086 2.888794,-8.34586 0.643496,-0.40719 1.920683,-0.77432 3.817652,0.16026 3.291899,-0.78413 4.984455,0.29273 5.773498,1.16026 0.439084,0.47997 0.597706,0.89534 0.597706,0.89534"
           style="fill:#ff8080;fill-opacity:1;fill-rule:nonzero;stroke:none;stroke-width:0.00817658" />
        <path
           id="path30"
           d="m 89.227378,116.31814 c -4.385928,3.54129 -0.784132,13.31478 -8.240374,12.25346 -2.906781,-0.41456 -4.474235,-3.12019 -4.837276,-6.12346 0,0 2.125918,4.22812 4.918224,3.72362 3.460339,-0.62142 3.162706,-2.91169 4.464423,-7.05477 0.522484,-1.65576 1.849546,-3.09402 3.097297,-3.69419 0.439084,0.47997 0.597706,0.89534 0.597706,0.89534"
           style="fill:#f26666;fill-opacity:1;fill-rule:nonzero;stroke:none;stroke-width:0.00817658" />
        <path
           id="path31"
           d="m 80.623147,114.99844 c -0.450533,0 -0.734263,0.13083 -0.875714,0.22076 -1.866717,1.18562 -2.828285,4.73835 -2.143088,7.92068 0.242029,1.12101 1.072767,3.76614 3.568269,4.12183 2.880614,0.41046 3.353224,-0.8422 4.067041,-4.82175 0.384296,-2.14226 0.811936,-4.52738 2.273912,-6.28044 -0.606708,-0.56746 -1.873261,-1.19869 -4.349955,-0.60998 -0.299263,0.0711 -0.613245,0.036 -0.88961,-0.0998 -0.699099,-0.34341 -1.24366,-0.45134 -1.650855,-0.45134 z m 1.439077,14.97626 c -0.391655,0 -0.811114,-0.0303 -1.261647,-0.0949 -2.874892,-0.40965 -5.035967,-2.72117 -5.781673,-6.18396 -0.789859,-3.67047 0.101388,-8.67129 3.311523,-10.7089 0.610792,-0.38757 2.244476,-1.1349 4.675379,-0.10874 4.626319,-0.91906 6.89451,1.50776 7.45542,2.96646 0.205235,0.53558 0.04252,1.14309 -0.404741,1.50287 -1.422728,1.14799 -1.825017,3.39083 -2.214219,5.55927 -0.541293,3.02044 -1.268191,7.06785 -5.780042,7.06785"
           style="fill:#1a1a1a;fill-opacity:1;fill-rule:nonzero;stroke:none;stroke-width:0.00817658" />
        <path
           id="path32"
           d="m 80.383571,121.94528 c -0.0074,0.13001 -0.0033,0.0613 -0.009,0.0466 l -0.01063,-0.072 -0.02044,-0.14718 -0.03516,-0.29681 c -0.02126,-0.19705 -0.04006,-0.39493 -0.05314,-0.59362 -0.0278,-0.39657 -0.04007,-0.79476 -0.03516,-1.19624 0.0098,-0.8013 0.08504,-1.61406 0.274733,-2.4309 0.187248,-0.81357 0.49714,-1.63859 1.008175,-2.39738 0.257563,-0.37612 0.565007,-0.73262 0.920689,-1.04661 0.359766,-0.30907 0.763692,-0.57072 1.190511,-0.78167 0.546199,-0.27065 1.207681,-0.0474 1.478331,0.49877 0.270643,0.54619 0.04661,1.2085 -0.499592,1.47914 -0.0327,0.0164 -0.06623,0.0311 -0.100573,0.0433 l -0.009,0.003 c -0.265737,0.0998 -0.518394,0.22486 -0.755518,0.3843 -0.232211,0.16517 -0.448073,0.36468 -0.645949,0.59362 -0.391661,0.4628 -0.700736,1.04988 -0.920683,1.69419 -0.223221,0.64351 -0.366316,1.34015 -0.448079,2.05152 -0.0417,0.35568 -0.06787,0.71545 -0.08095,1.07686 -0.0065,0.18069 -0.009,0.36221 -0.0082,0.54292 l 0.0139,0.66394 c -0.03189,0.34669 -0.338511,0.60098 -0.685197,0.56909 -0.34587,-0.0319 -0.60098,-0.33851 -0.569091,-0.6852"
           style="fill:#1a1a1a;fill-opacity:1;fill-rule:nonzero;stroke:none;stroke-width:0.00817658" />
        <path
           id="path33"
           d="m 121.02454,101.72782 c -0.0172,0.0262 -0.0401,-0.0491 -0.0695,-0.11202 l -0.09,-0.21259 -0.18969,-0.45299 -0.40393,-0.91741 c -0.278,-0.609972 -0.56582,-1.21259 -0.86345,-1.802942 -0.29681,-0.590347 -0.61733,-1.161891 -0.93622,-1.718717 -0.3287,-0.552736 -0.67212,-1.084217 -1.02371,-1.587894 -0.71954,-0.993456 -1.50204,-1.877351 -2.34505,-2.425181 -0.37366,-0.247751 -0.93131,-0.549467 -1.44316,-0.7825 -0.51758,-0.237939 -1.04497,-0.416191 -1.56828,-0.553558 -2.09566,-0.560095 -4.19541,-0.197054 -6.0425,1.105478 -0.91578,0.649224 -1.78577,1.472604 -2.57972,2.437446 -0.81766,0.951756 -1.52902,2.047416 -2.29109,3.192142 l -0.0229,0.0327 c -0.33442,0.50286 -1.01226,0.63859 -1.515124,0.304169 -0.351592,-0.23467 -0.5233,-0.63859 -0.479962,-1.031889 0.168434,-1.501217 0.608339,-2.986091 1.304986,-4.402276 0.69665,-1.411279 1.68356,-2.7457 2.96075,-3.850363 1.27963,-1.094844 2.86344,-1.955024 4.59443,-2.364672 1.72689,-0.421091 3.56335,-0.36631 5.22647,0.07114 0.83484,0.214231 1.63124,0.518401 2.38512,0.877352 0.36876,0.189695 0.73998,0.379396 1.08749,0.595258 0.33115,0.194601 0.7547,0.465244 1.09484,0.748974 1.40556,1.145542 2.39902,2.50204 3.14472,3.893695 0.38185,0.693377 0.69583,1.404741 0.96321,2.122649 0.27637,0.712995 0.49141,1.440714 0.67866,2.168428 0.18315,0.728534 0.32297,1.463613 0.42436,2.205228 0.0466,0.372037 0.0924,0.743253 0.11366,1.122653 0.0114,0.19051 0.0253,0.37939 0.027,0.57726 l 8e-4,0.30581 -0.009,0.41046 c 0.0123,0.58954 -0.45543,1.07686 -1.04415,1.08913 -0.58953,0.0123 -1.07686,-0.45544 -1.08912,-1.04497"
           style="fill:#1a1a1a;fill-opacity:1;fill-rule:nonzero;stroke:none;stroke-width:0.00817658" />
        <path
           id="path34"
           d="m 52.295323,89.076985 c 0.817658,-2.53229 2.223215,-5.083389 4.454611,-7.080114 1.105472,-1.000816 2.431718,-1.825017 3.876523,-2.400652 0.72772,-0.29681 1.466882,-0.489774 2.233027,-0.63859 0.763699,-0.153722 1.575635,-0.211772 2.397383,-0.195423 1.645128,0.04579 3.385928,0.551105 4.806203,1.517579 1.425181,0.961568 2.49468,2.286992 3.218309,3.681107 0.712995,1.405557 1.089123,2.903506 1.179061,4.386743 0.06868,1.482415 -0.112015,2.968105 -0.677837,4.323787 -0.233849,0.557642 -0.874892,0.821748 -1.433356,0.588715 -0.372853,-0.156175 -0.614061,-0.49387 -0.663942,-0.867539 l -0.0082,-0.06868 C 71.52093,91.130132 71.292803,90.003399 70.942849,88.942074 70.59861,87.882387 70.142356,86.90038 69.594526,86.053286 69.04179,85.209461 68.360677,84.542251 67.612518,84.103167 66.860269,83.66899 66.030346,83.443316 65.099851,83.413058 c -0.466066,-0.01226 -0.950124,0.0041 -1.453801,0.09321 -0.504498,0.07032 -1.020439,0.19706 -1.507767,0.333605 -0.989366,0.28373 -1.928857,0.766151 -2.841366,1.371215 -0.449711,0.310713 -0.901881,0.641865 -1.338511,1.010628 -0.430087,0.37449 -0.868355,0.762061 -1.286992,1.183974 -0.852006,0.836466 -1.65004,1.770235 -2.528207,2.737525 l -0.0017,0.0025 c -0.404741,0.446442 -1.094844,0.479968 -1.541286,0.07523 -0.327062,-0.296811 -0.431725,-0.748159 -0.304985,-1.143911"
           style="fill:#1a1a1a;fill-opacity:1;fill-rule:nonzero;stroke:none;stroke-width:0.00817658" />
        <path
           id="path35"
           d="m 151.16511,64.547189 c 0.62633,-0.32134 1.1897,-0.919045 1.65576,-1.618144 0.46852,-0.700737 0.85283,-1.499593 1.18234,-2.327062 0.65331,-1.665574 1.07032,-3.457886 1.41046,-5.260826 0.64677,-3.621414 0.88717,-7.337678 0.93704,-11.040861 0.0245,-1.852816 -0.008,-3.706452 -0.0875,-5.551909 -0.0719,-1.84464 -0.2085,-3.68601 -0.4121,-5.48895 -0.10057,-0.898608 -0.22404,-1.793128 -0.39411,-2.631229 -0.0842,-0.415372 -0.18479,-0.823384 -0.29517,-1.147995 -0.0523,-0.159443 -0.11774,-0.300081 -0.13901,-0.329517 -0.002,-0.0049 -0.007,0.01881 0.12837,0.158626 0.0286,0.02617 0.0965,0.08994 0.15046,0.123467 0.0393,0.02944 0.0834,0.05805 0.12837,0.08258 l 0.0687,0.03434 c 0.0303,0.01554 0.0613,0.03025 0.0924,0.04334 0.0654,0.02698 0.12511,0.04497 0.19869,0.06459 0.0777,0.02126 0.15782,0.03516 0.23794,0.0417 l 0.0826,0.0065 0.0417,8.15e-4 c 0.10139,-0.0057 0.0466,-0.0033 0.005,0.009 -0.0531,0.0139 -0.1202,0.03025 -0.20279,0.05805 -0.15535,0.04661 -0.34341,0.119379 -0.52739,0.190515 -0.37612,0.151267 -0.77023,0.330335 -1.1627,0.521667 -0.78741,0.385118 -1.57564,0.815207 -2.35078,1.270644 -1.56255,0.895337 -3.08666,1.885523 -4.53228,2.958293 -1.44808,1.069502 -2.84628,2.199504 -4.08504,3.443987 -1.2273,1.23957 -2.35894,2.577259 -3.03024,4.008168 -0.33524,0.710543 -0.55274,1.42845 -0.59608,2.121828 -0.0343,0.690102 0.0842,1.360581 0.41292,1.999994 0.15699,0.32134 0.36059,0.634506 0.60671,0.932947 0.0646,0.0785 0.11201,0.143095 0.19133,0.233033 l 0.23712,0.271466 0.47097,0.544561 c 0.62469,0.729351 1.22649,1.478331 1.8193,2.232212 1.1856,1.508582 2.28699,3.079305 3.32869,4.686006 1.04742,1.602618 1.99836,3.265738 2.89533,4.949297 0.45053,0.839735 0.88144,1.690103 1.30008,2.534744 0.20932,0.420281 0.41619,0.842194 0.62388,1.239576 0.10384,0.19787 0.20932,0.39084 0.30825,0.54783 0.0458,0.07359 0.0981,0.144726 0.11039,0.157807 0.008,0.01472 -0.004,-0.01308 -0.085,-0.05887 -0.0302,-0.0188 -0.0638,-0.03434 -0.0973,-0.04661 -0.0466,-0.0188 -0.11284,-0.03761 -0.17089,-0.04252 -0.14881,-0.02126 -0.32134,0.0057 -0.45626,0.07686 m 0.83729,1.670479 c -0.1897,0.09567 -0.42028,0.133283 -0.62715,0.105479 -0.0867,-0.01308 -0.18152,-0.03761 -0.25592,-0.06541 -0.0605,-0.02453 -0.1202,-0.05397 -0.17662,-0.08585 -0.17906,-0.108753 -0.28209,-0.215047 -0.34996,-0.289452 -0.14554,-0.161081 -0.22649,-0.284546 -0.30744,-0.407195 -0.15453,-0.239576 -0.27555,-0.458707 -0.39329,-0.675391 -0.23304,-0.43254 -0.44481,-0.851184 -0.65903,-1.269006 -0.42682,-0.834013 -0.85609,-1.654945 -1.30417,-2.465244 -0.89943,-1.618151 -1.89697,-3.17334 -2.95584,-4.683554 -1.06296,-1.507767 -2.22404,-2.94276 -3.43663,-4.327878 -0.60752,-0.69174 -1.23712,-1.363035 -1.8798,-2.022071 l -0.48487,-0.490596 -0.24366,-0.24366 -0.27801,-0.291905 c -0.37857,-0.40311 -0.7269,-0.857727 -1.02125,-1.360588 -0.60589,-0.993456 -0.9395,-2.21504 -0.95258,-3.400645 -0.009,-1.189695 0.26247,-2.322156 0.6713,-3.333599 0.83401,-2.027799 2.08831,-3.677017 3.43662,-5.156985 2.73344,-2.937034 5.89615,-5.237929 9.25837,-7.229748 0.85118,-0.48569 1.71872,-0.946033 2.62469,-1.376122 0.45543,-0.213409 0.91987,-0.419459 1.41782,-0.612426 0.25511,-0.09485 0.50695,-0.18888 0.8013,-0.27637 0.14146,-0.04334 0.30172,-0.08504 0.47752,-0.125102 0.18806,-0.03679 0.36549,-0.07931 0.70155,-0.08994 l 0.13001,-8.16e-4 0.0646,0.0016 c 0.018,0 0.0376,0 0.10548,0.0065 0.10875,0.01145 0.21831,0.03025 0.32461,0.05642 0.10221,0.02535 0.18888,0.05724 0.28128,0.09321 l 0.13409,0.05887 0.1063,0.05724 c 0.0703,0.03925 0.13982,0.0834 0.20441,0.127555 0.0981,0.07195 0.21586,0.168438 0.28373,0.238757 0.30253,0.304986 0.42518,0.529025 0.53639,0.729352 0.19869,0.386753 0.29681,0.68847 0.38511,0.977103 0.16844,0.572363 0.26656,1.084217 0.35241,1.592802 0.16517,1.011445 0.26084,1.985278 0.33443,2.957475 0.25266,3.875704 0.13491,7.68355 -0.16272,11.489753 -0.3148,3.801302 -0.80375,7.588703 -1.64758,11.337671 -0.41864,1.875714 -0.94767,3.738341 -1.69828,5.561727 -0.37694,0.911686 -0.81848,1.813567 -1.40474,2.669657 -0.58626,0.845463 -1.33278,1.682744 -2.39247,2.218309"
           style="fill:#1a1a1a;fill-opacity:1;fill-rule:nonzero;stroke:none;stroke-width:0.00817658" />
        <path
           id="path36"
           d="m 151.58376,65.38284 c -0.83729,0.419459 -2.80294,-7.617317 -11.72034,-17.049846 -7.8201,-8.272263 13.85688,-20.608296 16.32458,-20.458665 2.46687,0.148815 3.11038,33.641799 -4.60424,37.508511"
           style="fill:#ffffff;fill-opacity:1;fill-rule:nonzero;stroke:none;stroke-width:0.00817658" />
        <path
           id="path37"
           d="m 151.51671,65.400011 c -0.56337,0 -1.62796,-3.264101 -4.63613,-8.044136 3.00898,4.77922 4.0744,8.042498 4.63776,8.042498 0.0229,0 0.0442,-0.0049 0.0654,-0.01553 0.53148,-0.266559 1.02207,-0.672117 1.47587,-1.198692 -0.4538,0.526575 -0.94603,0.93377 -1.47833,1.200329 -0.0213,0.0098 -0.0425,0.01553 -0.0646,0.01553 m 1.54538,-1.219131 c 0.002,-0.0025 0.005,-0.0049 0.007,-0.0074 -0.002,0.0025 -0.004,0.0049 -0.007,0.0074 m 0.0123,-0.0139 c 8e-4,-0.0017 0.002,-0.0025 0.003,-0.0033 -0.002,7.97e-4 -0.002,0.0017 -0.003,0.0033 m 4.47505,-31.394865 c 0,-8.16e-4 -7.9e-4,-8.16e-4 -7.9e-4,-8.16e-4 -0.0221,-0.223221 -0.0458,-0.441536 -0.0703,-0.65331 0.0254,0.211774 0.0491,0.430089 0.0711,0.654129"
           style="fill:#000072;fill-opacity:1;fill-rule:nonzero;stroke:none;stroke-width:0.00817658" />
        <path
           id="path38"
           d="m 151.51834,65.398373 c -0.56336,0 -1.62878,-3.263278 -4.63776,-8.042498 -1.66394,-2.643496 -3.92068,-5.748969 -7.01634,-9.023696 -7.77431,-8.219119 13.59359,-20.45785 16.27552,-20.45785 0.0164,0 0.0311,8.16e-4 0.0466,0.0016 0.54129,0.03352 0.99264,1.667208 1.29191,4.242019 0.0245,0.211774 0.0482,0.430089 0.0703,0.65331 -0.25102,-0.0834 -0.53883,-0.136549 -0.86672,-0.136549 -0.95339,0 -2.24202,0.445624 -3.9313,1.863446 -3.72771,3.138179 -10.03432,10.451327 -2.97547,20.117704 2.13818,2.926404 3.79803,3.94766 5.07522,3.94766 0.33524,0 0.6435,-0.07032 0.92722,-0.194602 -0.69337,2.45298 -1.58217,4.488131 -2.69991,5.794754 -8e-4,7.97e-4 -0.002,0.0017 -0.003,0.0033 -0.002,0.0017 -0.003,0.0041 -0.006,0.0065 -0.002,0.0025 -0.004,0.0049 -0.007,0.0074 -8e-4,7.98e-4 -0.002,0.0025 -0.002,0.0033 -0.4538,0.526575 -0.9444,0.932132 -1.47588,1.198691 -0.0213,0.01063 -0.0425,0.01553 -0.0654,0.01553"
           style="fill:#ffd5d5;fill-opacity:1;fill-rule:nonzero;stroke:none;stroke-width:0.00817658" />
        <path
           id="path39"
           d="m 151.24279,64.700911 c 0.66558,-0.340964 1.24612,-0.960752 1.72281,-1.673747 0.47915,-0.714639 0.86918,-1.522485 1.20278,-2.358951 0.66231,-1.679475 1.08994,-3.478325 1.43744,-5.286987 0.65658,-3.635315 0.91251,-7.358123 1.00245,-11.069481 0.0744,-3.709721 -0.0392,-7.443978 -0.43908,-11.081744 -0.0981,-0.905967 -0.21913,-1.807028 -0.38839,-2.661483 -0.0842,-0.423547 -0.18479,-0.840554 -0.3009,-1.188877 -0.0556,-0.170891 -0.12346,-0.327064 -0.16107,-0.388389 -0.0123,-0.02371 -0.0278,-0.02208 0.067,0.07604 0.0196,0.01799 0.0703,0.06705 0.11039,0.09076 0.0687,0.05151 0.11365,0.07359 0.2224,0.122649 0.0916,0.0368 0.21014,0.07114 0.34015,0.08258 0.0425,0.0025 0.0466,0.0033 0.0466,0.0033 l 0.0131,0.0016 0.0254,0.0016 c 0.0613,-0.0041 -0.005,0.0016 -0.0597,0.01635 -0.0646,0.01635 -0.13982,0.03434 -0.22812,0.06378 -0.16844,0.0507 -0.36222,0.125102 -0.55274,0.198692 -0.38757,0.155356 -0.78822,0.336876 -1.18642,0.529843 -0.79804,0.389207 -1.59362,0.822567 -2.37612,1.280456 -1.57318,0.904332 -3.10629,1.902694 -4.56336,2.986094 -1.45707,1.080126 -2.86181,2.227305 -4.11283,3.492221 -1.23794,1.261653 -2.38675,2.623872 -3.07685,4.109562 -0.34506,0.739163 -0.56256,1.497949 -0.60017,2.237933 -0.0278,0.73671 0.11284,1.457886 0.46934,2.129186 0.17089,0.336874 0.38757,0.663121 0.64677,0.969743 l 0.20033,0.238761 0.23875,0.267375 0.47261,0.538833 c 0.62714,0.721998 1.2363,1.460345 1.82829,2.210135 1.1856,1.499592 2.28781,3.062956 3.33114,4.659846 1.04824,1.594436 2.00327,3.247745 2.90024,4.924767 0.45053,0.837282 0.88144,1.685197 1.3009,2.5282 0.20932,0.420281 0.41701,0.842194 0.62714,1.242845 0.10466,0.199507 0.21178,0.39493 0.31562,0.55928 0.0491,0.0785 0.10384,0.154537 0.12837,0.18152 0.0139,0.01962 0.0123,0.0041 -0.045,-0.02698 -0.0221,-0.01472 -0.0466,-0.02617 -0.0719,-0.03434 -0.036,-0.01472 -0.0867,-0.03025 -0.13165,-0.03353 -0.11529,-0.01635 -0.25102,0.0041 -0.35568,0.06051 z m 0.68275,1.363041 c -0.16026,0.08013 -0.35323,0.112016 -0.52821,0.08831 -0.0728,-0.01063 -0.1529,-0.03107 -0.21668,-0.0556 -0.0515,-0.02126 -0.10221,-0.04579 -0.15127,-0.07277 -0.15453,-0.09484 -0.24693,-0.188879 -0.30907,-0.257563 -0.13328,-0.147179 -0.21177,-0.266553 -0.29027,-0.384296 -0.14882,-0.232217 -0.2682,-0.448895 -0.3843,-0.663942 -0.23058,-0.429271 -0.44235,-0.847915 -0.65658,-1.266553 -0.426,-0.834835 -0.85527,-1.658214 -1.30335,-2.471788 -0.89943,-1.623872 -1.89289,-3.188873 -2.95012,-4.707267 -1.06214,-1.516757 -2.22322,-2.959931 -3.43499,-4.354855 -0.60834,-0.695015 -1.23058,-1.377759 -1.87081,-2.043332 l -0.48241,-0.496324 -0.24285,-0.246929 -0.26901,-0.28782 c -0.36631,-0.393292 -0.69991,-0.836466 -0.98037,-1.322972 -0.57891,-0.961568 -0.89044,-2.132455 -0.89697,-3.271459 -0.003,-1.143088 0.26819,-2.234664 0.66721,-3.218309 0.81439,-1.972196 2.05232,-3.596884 3.38919,-5.055591 2.713,-2.892878 5.86099,-5.178238 9.20031,-7.152886 0.84383,-0.482419 1.70401,-0.941126 2.59935,-1.36631 0.44971,-0.211773 0.9076,-0.414553 1.3941,-0.60425 0.24857,-0.09321 0.49469,-0.184791 0.77596,-0.268192 0.13574,-0.04252 0.28864,-0.08177 0.45299,-0.119379 0.17416,-0.03434 0.34014,-0.07277 0.63613,-0.08258 l 0.11366,-8.16e-4 0.0572,8.16e-4 c 0.0164,8.15e-4 0.0335,8.15e-4 0.0899,0.0065 0.18806,0.01881 0.36467,0.0646 0.51022,0.12592 0.16517,0.06623 0.25593,0.128372 0.37694,0.206867 0.0842,0.06214 0.18479,0.143908 0.24366,0.204415 0.26247,0.264922 0.37367,0.466066 0.47506,0.648404 0.18234,0.353229 0.278,0.640228 0.36223,0.917415 0.16353,0.549467 0.26164,1.052328 0.3475,1.551918 0.16599,0.995093 0.26411,1.962384 0.34015,2.927222 0.25838,3.851998 0.15617,7.651663 -0.10139,11.448875 -0.27556,3.792307 -0.7498,7.574802 -1.58217,11.309868 -0.4121,1.86917 -0.9305,3.724444 -1.67212,5.533922 -0.37285,0.903518 -0.80948,1.796402 -1.38429,2.637774 -0.57564,0.832376 -1.30499,1.647581 -2.32461,2.163528"
           style="fill:#000000;fill-opacity:1;fill-rule:nonzero;stroke:none;stroke-width:0.00817658" />
      </g>
    </g>
  </g>
</svg>
